<svg width="411.6875px" height="121.60000610351562px" xmlns="http://www.w3.org/2000/svg" viewBox="44.15625 14.199996948242188 411.6875 121.60000610351562" style="background: rgba(0, 0, 0, 0);" preserveAspectRatio="xMidYMid"><defs><filter id="editing-extrusion" x="-100%" y="-100%" width="300%" height="300%"><feFlood result="color1" flood-color="#444"></feFlood><feConvolveMatrix order="8,8" divisor="1" kernelMatrix="1 0 0 0 0 0 0 0 0 1 0 0 0 0 0 0 0 0 1 0 0 0 0 0 0 0 0 1 0 0 0 0 0 0 0 0 1 0 0 0 0 0 0 0 0 1 0 0 0 0 0 0 0 0 1 0 0 0 0 0 0 0 0 1" in="SourceAlpha" result="extrude"></feConvolveMatrix><feComposite in="color1" in2="extrude" result="comp-extrude" operator="in"></feComposite><feOffset dx="4" dy="4" in="comp-extrude" result="offset-extrude"></feOffset><feMerge><feMergeNode in="offset-extrude"></feMergeNode><feMergeNode in="SourceGraphic"></feMergeNode></feMerge></filter></defs><g filter="url(#editing-extrusion)"><g transform="translate(105.64998960494995, 97.39999580383301)"><path d="M27.01-20.61L39.94-21.76L39.94-21.76Q35.33-11.65 35.33 0.06L35.33 0.06L35.33 0.06Q33.60 1.28 31.07 1.28L31.07 1.28L31.07 1.28Q28.54 1.28 26.94 0.10L26.94 0.10L26.94 0.10Q25.34-1.09 25.02-2.30L25.02-2.30L25.02-2.30Q23.42-0.64 20.83 0.32L20.83 0.32L20.83 0.32Q18.24 1.28 15.49 1.28L15.49 1.28L15.49 1.28Q12.74 1.28 10.34 0.38L10.34 0.38L10.34 0.38Q7.94-0.51 6.08-2.50L6.08-2.50L6.08-2.50Q1.98-6.85 1.98-15.10L1.98-15.10L1.98-15.10Q1.98-27.90 8.83-35.58L8.83-35.58L8.83-35.58Q15.87-43.52 28.35-43.52L28.35-43.52L28.35-43.52Q36.99-43.52 40.06-39.04L40.06-39.04L40.06-39.04Q41.02-37.63 41.02-35.94L41.02-35.94L41.02-35.94Q41.02-34.24 40.29-32.80L40.29-32.80L40.29-32.80Q39.55-31.36 38.40-30.21L38.40-30.21L38.40-30.21Q35.65-27.65 32.26-27.65L32.26-27.65L32.26-27.65Q30.91-27.65 29.63-28.10L29.63-28.10L29.63-28.10Q29.89-30.02 29.89-32.26L29.89-32.26L29.89-32.26Q29.89-34.50 29.73-35.52L29.73-35.52L29.73-35.52Q29.57-36.54 29.18-37.38L29.18-37.38L29.18-37.38Q28.35-39.10 26.53-39.10L26.53-39.10L26.53-39.10Q24.70-39.10 22.69-37.15L22.69-37.15L22.69-37.15Q20.67-35.20 19.07-32L19.07-32L19.07-32Q15.55-24.83 15.55-16.19L15.55-16.19L15.55-16.19Q15.55-12.22 17.09-9.41L17.09-9.41L17.09-9.41Q18.75-6.34 21.70-6.34L21.70-6.34L21.70-6.34Q22.72-6.34 23.65-6.85L23.65-6.85L23.65-6.85Q24.58-7.36 24.96-7.74L24.96-7.74L27.01-20.61ZM45.86-1.92L45.86-1.92L45.86-1.92Q44.35-3.58 43.68-6.21L43.68-6.21L43.68-6.21Q43.01-8.83 43.01-13.12L43.01-13.12L43.01-13.12Q43.01-17.41 44.48-21.31L44.48-21.31L44.48-21.31Q45.95-25.22 48.64-28.03L48.64-28.03L48.64-28.03Q54.14-33.92 63.23-33.92L63.23-33.92L63.23-33.92Q66.50-33.92 68.86-32.83L68.86-32.83L79.81-33.92L75.07-8.96L75.07-8.96Q74.88-8.19 74.88-6.78L74.88-6.78L74.88-6.78Q74.88-5.38 75.74-4.48L75.74-4.48L75.74-4.48Q76.61-3.58 77.89-3.46L77.89-3.46L77.89-3.46Q77.25-1.28 74.91 0L74.91 0L74.91 0Q72.58 1.28 69.95 1.28L69.95 1.28L69.95 1.28Q67.33 1.28 65.57 0.29L65.57 0.29L65.57 0.29Q63.81-0.70 63.30-2.37L63.30-2.37L63.30-2.37Q62.27-0.77 60.10 0.26L60.10 0.26L60.10 0.26Q57.92 1.28 55.01 1.28L55.01 1.28L55.01 1.28Q52.10 1.28 49.73 0.51L49.73 0.51L49.73 0.51Q47.36-0.26 45.86-1.92ZM59.36-27.90L59.36-27.90L59.36-27.90Q58.62-26.75 57.98-24.80L57.98-24.80L57.98-24.80Q57.34-22.85 56.29-17.63L56.29-17.63L56.29-17.63Q55.23-12.42 55.23-8.70L55.23-8.70L55.23-8.70Q55.23-4.99 55.81-3.90L55.81-3.90L55.81-3.90Q56.38-2.82 57.41-2.82L57.41-2.82L57.41-2.82Q59.46-2.82 60.96-4.77L60.96-4.77L60.96-4.77Q62.46-6.72 63.04-10.18L63.04-10.18L66.43-28.93L66.43-28.93Q65.09-30.08 63.52-30.08L63.52-30.08L63.52-30.08Q61.95-30.08 61.02-29.57L61.02-29.57L61.02-29.57Q60.10-29.06 59.36-27.90ZM129.34 1.28L129.34 1.28L129.34 1.28Q121.60 1.28 121.60-4.74L121.60-4.74L121.60-4.74Q121.60-7.36 122.72-12.45L122.72-12.45L122.72-12.45Q123.84-17.54 124.22-19.58L124.22-19.58L124.22-19.58Q125.12-24.26 125.12-25.73L125.12-25.73L125.12-25.73Q125.12-28.99 122.69-28.99L122.69-28.99L122.69-28.99Q121.09-28.99 119.55-26.78L119.55-26.78L119.55-26.78Q118.02-24.58 117.31-20.16L117.31-20.16L113.34 0L100.86 1.28L104.32-16.13L104.32-16.13Q104.90-19.01 105.41-22.27L105.41-22.27L105.41-22.27Q105.92-25.54 105.92-26.05L105.92-26.05L105.92-26.05Q105.92-28.99 103.74-28.99L103.74-28.99L103.74-28.99Q102.27-28.99 100.67-26.82L100.67-26.82L100.67-26.82Q99.07-24.64 98.18-20.16L98.18-20.16L94.27 0L81.66 1.28L88.38-32.64L98.82-33.92L97.73-27.46L97.73-27.46Q99.39-30.91 102.46-32.42L102.46-32.42L102.46-32.42Q105.54-33.92 110.34-33.92L110.34-33.92L110.34-33.92Q113.09-33.92 114.88-32.58L114.88-32.58L114.88-32.58Q116.67-31.23 117.25-29.06L117.25-29.06L117.25-29.06Q118.34-31.30 121.12-32.61L121.12-32.61L121.12-32.61Q123.90-33.92 127.33-33.92L127.33-33.92L127.33-33.92Q130.75-33.92 132.45-33.18L132.45-33.18L132.45-33.18Q134.14-32.45 135.17-31.23L135.17-31.23L135.17-31.23Q136.90-28.99 136.90-24.90L136.90-24.90L136.90-24.90Q136.90-20.86 135.17-12.48L135.17-12.48L135.17-12.48Q134.27-8.38 134.27-6.88L134.27-6.88L134.27-6.88Q134.27-5.38 135.14-4.48L135.14-4.48L135.14-4.48Q136-3.58 137.28-3.46L137.28-3.46L137.28-3.46Q136.64-1.28 134.43 0L134.43 0L134.43 0Q132.22 1.28 129.34 1.28ZM183.74-26.56L183.74-26.56L183.74-26.56Q183.74 0.70 154.18 0.70L154.18 0.70L154.18 0.70Q149.44 0.70 141.63-0.45L141.63-0.45L148.80-38.27L148.80-38.27Q149.31-40.83 149.63-42.30L149.63-42.30L149.63-42.30Q159.36-43.01 163.68-43.01L163.68-43.01L163.68-43.01Q168-43.01 171.97-42.11L171.97-42.11L171.97-42.11Q175.94-41.22 178.56-39.23L178.56-39.23L178.56-39.23Q183.74-35.33 183.74-26.56ZM170.56-28.93L170.56-28.93L170.56-28.93Q170.56-38.46 163.71-38.46L163.71-38.46L163.07-38.46L163.07-38.46Q162.75-38.46 162.43-38.40L162.43-38.40L155.84-4.03L155.84-4.03Q156.10-3.90 156.35-3.90L156.35-3.90L156.86-3.90L156.86-3.90Q159.23-3.90 161.70-5.38L161.70-5.38L161.70-5.38Q164.16-6.85 166.08-9.86L166.08-9.86L166.08-9.86Q170.56-16.83 170.56-28.93ZM200.96 1.28L200.96 1.28L200.96 1.28Q186.88 1.28 186.88-11.97L186.88-11.97L186.88-11.97Q186.88-21.38 192.06-27.46L192.06-27.46L192.06-27.46Q197.57-33.92 207.10-33.92L207.10-33.92L207.10-33.92Q214.02-33.92 217.54-30.72L217.54-30.72L217.54-30.72Q221.06-27.52 221.06-20.80L221.06-20.80L221.06-20.80Q221.06-10.56 215.55-4.61L215.55-4.61L215.55-4.61Q210.18 1.28 200.96 1.28ZM202.62-26.56L202.62-26.56L202.62-26.56Q201.86-24.83 201.25-22.24L201.25-22.24L201.25-22.24Q200.64-19.65 199.87-15.55L199.87-15.55L199.87-15.55Q199.10-11.46 199.10-6.40L199.10-6.40L199.10-6.40Q199.10-4.74 199.65-3.65L199.65-3.65L199.65-3.65Q200.19-2.56 201.66-2.56L201.66-2.56L201.66-2.56Q203.14-2.56 204.06-3.26L204.06-3.26L204.06-3.26Q204.99-3.97 205.70-5.63L205.70-5.63L205.70-5.63Q206.98-8.58 208.00-14.05L208.00-14.05L208.00-14.05Q209.02-19.52 209.12-21.89L209.12-21.89L209.12-21.89Q209.22-24.26 209.22-26.02L209.22-26.02L209.22-26.02Q209.22-27.78 208.70-28.93L208.70-28.93L208.70-28.93Q208.19-30.08 206.75-30.08L206.75-30.08L206.75-30.08Q205.31-30.08 204.35-29.18L204.35-29.18L204.35-29.18Q203.39-28.29 202.62-26.56ZM256.26-26.62L256.26-26.62L256.26-26.62Q256.26-23.94 254.02-22.27L254.02-22.27L254.02-22.27Q251.78-20.61 248.13-20.61L248.13-20.61L248.13-20.61Q246.59-20.61 245.70-21.06L245.70-21.06L245.70-21.06Q246.40-22.72 246.62-24.80L246.62-24.80L246.62-24.80Q246.85-26.88 246.85-27.46L246.85-27.46L246.85-27.46Q246.85-30.14 244.99-30.14L244.99-30.14L244.99-30.14Q243.71-30.14 242.27-28.54L242.27-28.54L242.27-28.54Q240.83-26.94 239.62-24.45L239.62-24.45L239.62-24.45Q236.93-18.69 236.93-12.86L236.93-12.86L236.93-12.86Q236.93-9.66 238.14-8.22L238.14-8.22L238.14-8.22Q239.36-6.78 242.05-6.78L242.05-6.78L242.05-6.78Q245.76-6.78 248.70-9.86L248.70-9.86L248.70-9.86Q249.54-10.82 249.98-11.90L249.98-11.90L249.98-11.90Q252.42-10.62 252.42-7.10L252.42-7.10L252.42-7.10Q252.42-3.52 248.45-1.15L248.45-1.15L248.45-1.15Q244.35 1.28 237.82 1.28L237.82 1.28L237.82 1.28Q224.83 1.28 224.83-12.48L224.83-12.48L224.83-12.48Q224.83-22.53 230.53-28.29L230.53-28.29L230.53-28.29Q236.03-33.92 246.14-33.92L246.14-33.92L246.14-33.92Q256.26-33.92 256.26-26.62ZM277.12-22.46L277.12-22.46L277.12-22.46Q278.02-24.83 278.02-26.88L278.02-26.88L278.02-26.88Q278.02-30.66 274.94-30.66L274.94-30.66L274.94-30.66Q273.34-30.66 272.03-29.22L272.03-29.22L272.03-29.22Q270.72-27.78 270.72-25.98L270.72-25.98L270.72-25.98Q270.72-24.70 271.74-23.68L271.74-23.68L271.74-23.68Q273.22-22.27 276.99-19.97L276.99-19.97L276.99-19.97Q280.77-17.66 282.21-15.78L282.21-15.78L282.21-15.78Q283.65-13.89 283.65-11.30L283.65-11.30L283.65-11.30Q283.65-8.70 282.40-6.34L282.40-6.34L282.40-6.34Q281.15-3.97 278.91-2.30L278.91-2.30L278.91-2.30Q274.11 1.28 266.43 1.28L266.43 1.28L266.43 1.28Q262.27 1.28 259.07-0.90L259.07-0.90L259.07-0.90Q255.87-3.01 255.87-5.50L255.87-5.50L255.87-5.50Q255.87-8 257.70-9.47L257.70-9.47L257.70-9.47Q259.52-10.94 262.21-10.94L262.21-10.94L262.21-10.94Q264.90-10.94 266.56-9.92L266.56-9.92L266.56-9.92Q265.73-7.81 265.73-6.40L265.73-6.40L265.73-6.40Q265.73-2.18 269.31-2.18L269.31-2.18L269.31-2.18Q270.85-2.18 271.87-3.14L271.87-3.14L271.87-3.14Q272.90-4.10 272.90-5.76L272.90-5.76L272.90-5.76Q272.90-9.02 267.39-12.48L267.39-12.48L267.39-12.48Q262.91-15.42 261.89-16.58L261.89-16.58L261.89-16.58Q260.16-18.62 260.16-21.18L260.16-21.18L260.16-21.18Q260.16-23.74 261.38-26.18L261.38-26.18L261.38-26.18Q262.59-28.61 264.83-30.34L264.83-30.34L264.83-30.34Q269.50-33.92 277.63-33.92L277.63-33.92L277.63-33.92Q281.79-33.92 284.26-32.26L284.26-32.26L284.26-32.26Q286.72-30.59 286.72-27.78L286.72-27.78L286.72-27.78Q286.72-24.96 285.02-23.36L285.02-23.36L285.02-23.36Q283.33-21.76 280.26-21.76L280.26-21.76L280.26-21.76Q278.14-21.76 277.12-22.46Z" fill="#ccc"></path></g></g><style>text {
  font-size: 64px;
  font-family: Arial Black;
  dominant-baseline: central;
  text-anchor: middle;
}</style></svg>